<mxfile host="app.diagrams.net" agent="Mozilla/5.0 (Windows NT 10.0; Win64; x64) AppleWebKit/537.36 (KHTML, like Gecko) Chrome/131.0.0.0 Safari/537.36" version="25.0.3" pages="2">
  <diagram id="LAZzCgJFHyNmJEEFzouN" name="Page-2">
    <mxGraphModel dx="3176" dy="5292" grid="1" gridSize="10" guides="1" tooltips="1" connect="1" arrows="1" fold="1" page="1" pageScale="1" pageWidth="850" pageHeight="1100" background="none" math="0" shadow="0">
      <root>
        <mxCell id="0" />
        <mxCell id="1" parent="0" />
        <mxCell id="8tDg4r73jLn0cOYWj6-P-1" style="edgeStyle=orthogonalEdgeStyle;rounded=0;orthogonalLoop=1;jettySize=auto;html=1;" parent="1" source="8tDg4r73jLn0cOYWj6-P-3" target="8tDg4r73jLn0cOYWj6-P-5" edge="1">
          <mxGeometry relative="1" as="geometry">
            <Array as="points">
              <mxPoint x="1350" y="-2810" />
              <mxPoint x="1670" y="-2810" />
            </Array>
          </mxGeometry>
        </mxCell>
        <mxCell id="8tDg4r73jLn0cOYWj6-P-2" style="edgeStyle=orthogonalEdgeStyle;rounded=0;orthogonalLoop=1;jettySize=auto;html=1;exitX=0.5;exitY=1;exitDx=0;exitDy=0;exitPerimeter=0;entryX=0.5;entryY=0;entryDx=0;entryDy=0;" parent="1" source="8tDg4r73jLn0cOYWj6-P-3" target="8tDg4r73jLn0cOYWj6-P-4" edge="1">
          <mxGeometry relative="1" as="geometry" />
        </mxCell>
        <mxCell id="8tDg4r73jLn0cOYWj6-P-3" value="Start" style="strokeWidth=2;html=1;shape=mxgraph.flowchart.start_1;whiteSpace=wrap;" parent="1" vertex="1">
          <mxGeometry x="1300" y="-2910" width="100" height="60" as="geometry" />
        </mxCell>
        <mxCell id="8tDg4r73jLn0cOYWj6-P-4" value="User" style="rounded=1;whiteSpace=wrap;html=1;absoluteArcSize=1;arcSize=14;strokeWidth=2;" parent="1" vertex="1">
          <mxGeometry x="1000" y="-2770" width="100" height="50" as="geometry" />
        </mxCell>
        <mxCell id="8tDg4r73jLn0cOYWj6-P-5" value="Seller" style="rounded=1;whiteSpace=wrap;html=1;absoluteArcSize=1;arcSize=14;strokeWidth=2;" parent="1" vertex="1">
          <mxGeometry x="1620" y="-2770" width="100" height="50" as="geometry" />
        </mxCell>
        <mxCell id="8tDg4r73jLn0cOYWj6-P-6" style="edgeStyle=orthogonalEdgeStyle;rounded=0;orthogonalLoop=1;jettySize=auto;html=1;entryX=1;entryY=0.5;entryDx=0;entryDy=0;" parent="1" source="8tDg4r73jLn0cOYWj6-P-8" target="8tDg4r73jLn0cOYWj6-P-4" edge="1">
          <mxGeometry relative="1" as="geometry">
            <Array as="points">
              <mxPoint x="1350" y="-2745" />
            </Array>
          </mxGeometry>
        </mxCell>
        <mxCell id="8tDg4r73jLn0cOYWj6-P-7" style="edgeStyle=orthogonalEdgeStyle;rounded=0;orthogonalLoop=1;jettySize=auto;html=1;exitX=0.5;exitY=0;exitDx=0;exitDy=0;exitPerimeter=0;entryX=0;entryY=0.5;entryDx=0;entryDy=0;" parent="1" source="8tDg4r73jLn0cOYWj6-P-8" target="8tDg4r73jLn0cOYWj6-P-5" edge="1">
          <mxGeometry relative="1" as="geometry" />
        </mxCell>
        <mxCell id="8tDg4r73jLn0cOYWj6-P-8" value="Register" style="strokeWidth=2;html=1;shape=mxgraph.flowchart.decision;whiteSpace=wrap;" parent="1" vertex="1">
          <mxGeometry x="1300" y="-2690" width="100" height="100" as="geometry" />
        </mxCell>
        <mxCell id="8tDg4r73jLn0cOYWj6-P-9" value="Yes" style="edgeStyle=orthogonalEdgeStyle;rounded=0;orthogonalLoop=1;jettySize=auto;html=1;entryX=1;entryY=0.5;entryDx=0;entryDy=0;" parent="1" source="8tDg4r73jLn0cOYWj6-P-15" target="8tDg4r73jLn0cOYWj6-P-31" edge="1">
          <mxGeometry x="-0.9243" y="-20" relative="1" as="geometry">
            <Array as="points">
              <mxPoint x="1670" y="-2095" />
            </Array>
            <mxPoint as="offset" />
          </mxGeometry>
        </mxCell>
        <mxCell id="H5SiN7s75GPNOgeYYOhO-19" style="edgeStyle=orthogonalEdgeStyle;rounded=0;orthogonalLoop=1;jettySize=auto;html=1;exitX=0.5;exitY=1;exitDx=0;exitDy=0;exitPerimeter=0;entryX=0.5;entryY=0;entryDx=0;entryDy=0;" parent="1" source="8tDg4r73jLn0cOYWj6-P-15" target="8tDg4r73jLn0cOYWj6-P-53" edge="1">
          <mxGeometry relative="1" as="geometry" />
        </mxCell>
        <mxCell id="H5SiN7s75GPNOgeYYOhO-20" style="edgeStyle=orthogonalEdgeStyle;rounded=0;orthogonalLoop=1;jettySize=auto;html=1;exitX=0.5;exitY=1;exitDx=0;exitDy=0;exitPerimeter=0;entryX=0.5;entryY=0;entryDx=0;entryDy=0;" parent="1" source="8tDg4r73jLn0cOYWj6-P-15" target="8tDg4r73jLn0cOYWj6-P-51" edge="1">
          <mxGeometry relative="1" as="geometry" />
        </mxCell>
        <mxCell id="H5SiN7s75GPNOgeYYOhO-21" style="edgeStyle=orthogonalEdgeStyle;rounded=0;orthogonalLoop=1;jettySize=auto;html=1;exitX=0.5;exitY=1;exitDx=0;exitDy=0;exitPerimeter=0;entryX=0.5;entryY=0;entryDx=0;entryDy=0;" parent="1" source="8tDg4r73jLn0cOYWj6-P-15" target="8tDg4r73jLn0cOYWj6-P-50" edge="1">
          <mxGeometry relative="1" as="geometry" />
        </mxCell>
        <mxCell id="H5SiN7s75GPNOgeYYOhO-22" style="edgeStyle=orthogonalEdgeStyle;rounded=0;orthogonalLoop=1;jettySize=auto;html=1;exitX=0.5;exitY=1;exitDx=0;exitDy=0;exitPerimeter=0;entryX=0.5;entryY=0;entryDx=0;entryDy=0;" parent="1" source="8tDg4r73jLn0cOYWj6-P-15" target="8tDg4r73jLn0cOYWj6-P-54" edge="1">
          <mxGeometry relative="1" as="geometry" />
        </mxCell>
        <mxCell id="8tDg4r73jLn0cOYWj6-P-15" value="Login" style="strokeWidth=2;html=1;shape=mxgraph.flowchart.decision;whiteSpace=wrap;" parent="1" vertex="1">
          <mxGeometry x="1620" y="-2690" width="100" height="100" as="geometry" />
        </mxCell>
        <mxCell id="8tDg4r73jLn0cOYWj6-P-16" value="No" style="edgeStyle=orthogonalEdgeStyle;rounded=0;orthogonalLoop=1;jettySize=auto;html=1;" parent="1" source="8tDg4r73jLn0cOYWj6-P-27" target="8tDg4r73jLn0cOYWj6-P-8" edge="1">
          <mxGeometry y="20" relative="1" as="geometry">
            <mxPoint as="offset" />
          </mxGeometry>
        </mxCell>
        <mxCell id="8tDg4r73jLn0cOYWj6-P-17" value="Yes" style="edgeStyle=orthogonalEdgeStyle;rounded=0;orthogonalLoop=1;jettySize=auto;html=1;entryX=0;entryY=0.5;entryDx=0;entryDy=0;" parent="1" source="8tDg4r73jLn0cOYWj6-P-27" target="8tDg4r73jLn0cOYWj6-P-31" edge="1">
          <mxGeometry x="-0.9486" y="20" relative="1" as="geometry">
            <Array as="points">
              <mxPoint x="1050" y="-2095" />
            </Array>
            <mxPoint as="offset" />
          </mxGeometry>
        </mxCell>
        <mxCell id="H5SiN7s75GPNOgeYYOhO-4" style="edgeStyle=orthogonalEdgeStyle;rounded=0;orthogonalLoop=1;jettySize=auto;html=1;exitX=0.5;exitY=1;exitDx=0;exitDy=0;exitPerimeter=0;entryX=0.5;entryY=0;entryDx=0;entryDy=0;" parent="1" source="8tDg4r73jLn0cOYWj6-P-27" target="8tDg4r73jLn0cOYWj6-P-32" edge="1">
          <mxGeometry relative="1" as="geometry">
            <Array as="points">
              <mxPoint x="1050" y="-2540" />
              <mxPoint x="720" y="-2540" />
            </Array>
          </mxGeometry>
        </mxCell>
        <mxCell id="H5SiN7s75GPNOgeYYOhO-5" style="edgeStyle=orthogonalEdgeStyle;rounded=0;orthogonalLoop=1;jettySize=auto;html=1;exitX=0.5;exitY=1;exitDx=0;exitDy=0;exitPerimeter=0;entryX=0.5;entryY=0;entryDx=0;entryDy=0;" parent="1" source="8tDg4r73jLn0cOYWj6-P-27" target="8tDg4r73jLn0cOYWj6-P-33" edge="1">
          <mxGeometry relative="1" as="geometry">
            <Array as="points">
              <mxPoint x="1050" y="-2540" />
              <mxPoint x="840" y="-2540" />
            </Array>
          </mxGeometry>
        </mxCell>
        <mxCell id="H5SiN7s75GPNOgeYYOhO-11" style="edgeStyle=orthogonalEdgeStyle;rounded=0;orthogonalLoop=1;jettySize=auto;html=1;exitX=0.5;exitY=1;exitDx=0;exitDy=0;exitPerimeter=0;entryX=0.5;entryY=0;entryDx=0;entryDy=0;" parent="1" source="8tDg4r73jLn0cOYWj6-P-27" target="8tDg4r73jLn0cOYWj6-P-40" edge="1">
          <mxGeometry relative="1" as="geometry">
            <Array as="points">
              <mxPoint x="1050" y="-2540" />
              <mxPoint x="1120" y="-2540" />
            </Array>
          </mxGeometry>
        </mxCell>
        <mxCell id="H5SiN7s75GPNOgeYYOhO-12" style="edgeStyle=orthogonalEdgeStyle;rounded=0;orthogonalLoop=1;jettySize=auto;html=1;exitX=0.5;exitY=1;exitDx=0;exitDy=0;exitPerimeter=0;entryX=0.5;entryY=0;entryDx=0;entryDy=0;" parent="1" source="8tDg4r73jLn0cOYWj6-P-27" target="8tDg4r73jLn0cOYWj6-P-39" edge="1">
          <mxGeometry relative="1" as="geometry">
            <Array as="points">
              <mxPoint x="1050" y="-2540" />
              <mxPoint x="1250" y="-2540" />
            </Array>
          </mxGeometry>
        </mxCell>
        <mxCell id="H5SiN7s75GPNOgeYYOhO-13" style="edgeStyle=orthogonalEdgeStyle;rounded=0;orthogonalLoop=1;jettySize=auto;html=1;exitX=0.5;exitY=1;exitDx=0;exitDy=0;exitPerimeter=0;entryX=0;entryY=0.5;entryDx=0;entryDy=0;" parent="1" source="8tDg4r73jLn0cOYWj6-P-27" target="8tDg4r73jLn0cOYWj6-P-49" edge="1">
          <mxGeometry relative="1" as="geometry" />
        </mxCell>
        <mxCell id="H5SiN7s75GPNOgeYYOhO-28" value="" style="edgeStyle=orthogonalEdgeStyle;rounded=0;orthogonalLoop=1;jettySize=auto;html=1;" parent="1" source="8tDg4r73jLn0cOYWj6-P-27" target="H5SiN7s75GPNOgeYYOhO-24" edge="1">
          <mxGeometry relative="1" as="geometry" />
        </mxCell>
        <mxCell id="8tDg4r73jLn0cOYWj6-P-27" value="Login" style="strokeWidth=2;html=1;shape=mxgraph.flowchart.decision;whiteSpace=wrap;" parent="1" vertex="1">
          <mxGeometry x="1000" y="-2690" width="100" height="100" as="geometry" />
        </mxCell>
        <mxCell id="8tDg4r73jLn0cOYWj6-P-28" style="edgeStyle=orthogonalEdgeStyle;rounded=0;orthogonalLoop=1;jettySize=auto;html=1;exitX=0.5;exitY=1;exitDx=0;exitDy=0;entryX=0.5;entryY=0;entryDx=0;entryDy=0;entryPerimeter=0;" parent="1" source="8tDg4r73jLn0cOYWj6-P-4" target="8tDg4r73jLn0cOYWj6-P-27" edge="1">
          <mxGeometry relative="1" as="geometry" />
        </mxCell>
        <mxCell id="8tDg4r73jLn0cOYWj6-P-29" value="No" style="edgeStyle=orthogonalEdgeStyle;rounded=0;orthogonalLoop=1;jettySize=auto;html=1;entryX=1;entryY=0.5;entryDx=0;entryDy=0;entryPerimeter=0;" parent="1" source="8tDg4r73jLn0cOYWj6-P-15" target="8tDg4r73jLn0cOYWj6-P-8" edge="1">
          <mxGeometry y="-20" relative="1" as="geometry">
            <mxPoint as="offset" />
          </mxGeometry>
        </mxCell>
        <mxCell id="8tDg4r73jLn0cOYWj6-P-30" style="edgeStyle=orthogonalEdgeStyle;rounded=0;orthogonalLoop=1;jettySize=auto;html=1;exitX=0.5;exitY=1;exitDx=0;exitDy=0;entryX=0.5;entryY=0;entryDx=0;entryDy=0;entryPerimeter=0;" parent="1" source="8tDg4r73jLn0cOYWj6-P-5" target="8tDg4r73jLn0cOYWj6-P-15" edge="1">
          <mxGeometry relative="1" as="geometry" />
        </mxCell>
        <mxCell id="8tDg4r73jLn0cOYWj6-P-31" value="Logout" style="rounded=1;whiteSpace=wrap;html=1;absoluteArcSize=1;arcSize=14;strokeWidth=2;" parent="1" vertex="1">
          <mxGeometry x="1300" y="-2120" width="100" height="50" as="geometry" />
        </mxCell>
        <mxCell id="8tDg4r73jLn0cOYWj6-P-32" value="Manage Profile" style="rounded=1;whiteSpace=wrap;html=1;absoluteArcSize=1;arcSize=14;strokeWidth=2;" parent="1" vertex="1">
          <mxGeometry x="670" y="-2480" width="100" height="30" as="geometry" />
        </mxCell>
        <mxCell id="H5SiN7s75GPNOgeYYOhO-15" style="edgeStyle=orthogonalEdgeStyle;rounded=0;orthogonalLoop=1;jettySize=auto;html=1;exitX=0.5;exitY=1;exitDx=0;exitDy=0;entryX=0.5;entryY=0;entryDx=0;entryDy=0;" parent="1" source="8tDg4r73jLn0cOYWj6-P-33" target="8tDg4r73jLn0cOYWj6-P-37" edge="1">
          <mxGeometry relative="1" as="geometry" />
        </mxCell>
        <mxCell id="8tDg4r73jLn0cOYWj6-P-33" value="Search Product" style="rounded=1;whiteSpace=wrap;html=1;absoluteArcSize=1;arcSize=14;strokeWidth=2;" parent="1" vertex="1">
          <mxGeometry x="790" y="-2480" width="100" height="30" as="geometry" />
        </mxCell>
        <mxCell id="8tDg4r73jLn0cOYWj6-P-34" value="&amp;nbsp;WishList Product" style="rounded=1;whiteSpace=wrap;html=1;absoluteArcSize=1;arcSize=14;strokeWidth=2;" parent="1" vertex="1">
          <mxGeometry x="790" y="-2360" width="100" height="30" as="geometry" />
        </mxCell>
        <mxCell id="H5SiN7s75GPNOgeYYOhO-14" style="edgeStyle=orthogonalEdgeStyle;rounded=0;orthogonalLoop=1;jettySize=auto;html=1;entryX=0.5;entryY=0;entryDx=0;entryDy=0;" parent="1" source="8tDg4r73jLn0cOYWj6-P-35" target="8tDg4r73jLn0cOYWj6-P-36" edge="1">
          <mxGeometry relative="1" as="geometry" />
        </mxCell>
        <mxCell id="8tDg4r73jLn0cOYWj6-P-35" value="View Seller Terdekat" style="rounded=1;whiteSpace=wrap;html=1;absoluteArcSize=1;arcSize=14;strokeWidth=2;" parent="1" vertex="1">
          <mxGeometry x="917.5" y="-2485" width="100" height="40" as="geometry" />
        </mxCell>
        <mxCell id="8tDg4r73jLn0cOYWj6-P-36" value="Review Seller" style="rounded=1;whiteSpace=wrap;html=1;absoluteArcSize=1;arcSize=14;strokeWidth=2;" parent="1" vertex="1">
          <mxGeometry x="917.5" y="-2410" width="100" height="30" as="geometry" />
        </mxCell>
        <mxCell id="H5SiN7s75GPNOgeYYOhO-16" style="edgeStyle=orthogonalEdgeStyle;rounded=0;orthogonalLoop=1;jettySize=auto;html=1;exitX=0.5;exitY=1;exitDx=0;exitDy=0;entryX=0.5;entryY=0;entryDx=0;entryDy=0;" parent="1" source="8tDg4r73jLn0cOYWj6-P-37" target="8tDg4r73jLn0cOYWj6-P-34" edge="1">
          <mxGeometry relative="1" as="geometry" />
        </mxCell>
        <mxCell id="8tDg4r73jLn0cOYWj6-P-37" value="View Product" style="rounded=1;whiteSpace=wrap;html=1;absoluteArcSize=1;arcSize=14;strokeWidth=2;" parent="1" vertex="1">
          <mxGeometry x="790" y="-2420" width="100" height="30" as="geometry" />
        </mxCell>
        <mxCell id="8tDg4r73jLn0cOYWj6-P-38" value="" style="edgeStyle=orthogonalEdgeStyle;rounded=0;orthogonalLoop=1;jettySize=auto;html=1;" parent="1" source="8tDg4r73jLn0cOYWj6-P-39" target="8tDg4r73jLn0cOYWj6-P-44" edge="1">
          <mxGeometry relative="1" as="geometry" />
        </mxCell>
        <mxCell id="8tDg4r73jLn0cOYWj6-P-39" value="Buy product and add to cart" style="rounded=1;whiteSpace=wrap;html=1;absoluteArcSize=1;arcSize=14;strokeWidth=2;" parent="1" vertex="1">
          <mxGeometry x="1200" y="-2490" width="100" height="50" as="geometry" />
        </mxCell>
        <mxCell id="8tDg4r73jLn0cOYWj6-P-40" value="List Transaction" style="rounded=1;whiteSpace=wrap;html=1;absoluteArcSize=1;arcSize=14;strokeWidth=2;" parent="1" vertex="1">
          <mxGeometry x="1070" y="-2480" width="100" height="30" as="geometry" />
        </mxCell>
        <mxCell id="8tDg4r73jLn0cOYWj6-P-41" value="No" style="edgeStyle=orthogonalEdgeStyle;rounded=0;orthogonalLoop=1;jettySize=auto;html=1;entryX=1;entryY=0.5;entryDx=0;entryDy=0;" parent="1" source="8tDg4r73jLn0cOYWj6-P-44" target="8tDg4r73jLn0cOYWj6-P-39" edge="1">
          <mxGeometry relative="1" as="geometry">
            <Array as="points">
              <mxPoint x="1342.5" y="-2380" />
              <mxPoint x="1342.5" y="-2465" />
            </Array>
          </mxGeometry>
        </mxCell>
        <mxCell id="8tDg4r73jLn0cOYWj6-P-42" value="" style="edgeStyle=orthogonalEdgeStyle;rounded=0;orthogonalLoop=1;jettySize=auto;html=1;exitX=0.5;exitY=1;exitDx=0;exitDy=0;entryX=0.5;entryY=0;entryDx=0;entryDy=0;" parent="1" source="8tDg4r73jLn0cOYWj6-P-44" target="8tDg4r73jLn0cOYWj6-P-46" edge="1">
          <mxGeometry relative="1" as="geometry">
            <Array as="points">
              <mxPoint x="1230.5" y="-2300" />
              <mxPoint x="1160.5" y="-2300" />
            </Array>
          </mxGeometry>
        </mxCell>
        <mxCell id="8tDg4r73jLn0cOYWj6-P-43" value="Yes" style="edgeStyle=orthogonalEdgeStyle;rounded=0;orthogonalLoop=1;jettySize=auto;html=1;exitX=0.5;exitY=1;exitDx=0;exitDy=0;entryX=0.5;entryY=0;entryDx=0;entryDy=0;" parent="1" source="8tDg4r73jLn0cOYWj6-P-44" target="8tDg4r73jLn0cOYWj6-P-48" edge="1">
          <mxGeometry x="-0.8261" relative="1" as="geometry">
            <Array as="points">
              <mxPoint x="1250.5" y="-2300" />
              <mxPoint x="1322.5" y="-2300" />
            </Array>
            <mxPoint as="offset" />
          </mxGeometry>
        </mxCell>
        <mxCell id="8tDg4r73jLn0cOYWj6-P-44" value="Payment" style="rhombus;whiteSpace=wrap;html=1;rounded=1;arcSize=14;strokeWidth=2;" parent="1" vertex="1">
          <mxGeometry x="1210" y="-2410" width="80" height="80" as="geometry" />
        </mxCell>
        <mxCell id="8tDg4r73jLn0cOYWj6-P-45" style="edgeStyle=orthogonalEdgeStyle;rounded=0;orthogonalLoop=1;jettySize=auto;html=1;exitX=0.5;exitY=1;exitDx=0;exitDy=0;entryX=0.25;entryY=0;entryDx=0;entryDy=0;" parent="1" source="8tDg4r73jLn0cOYWj6-P-46" target="8tDg4r73jLn0cOYWj6-P-49" edge="1">
          <mxGeometry relative="1" as="geometry" />
        </mxCell>
        <mxCell id="8tDg4r73jLn0cOYWj6-P-46" value="Transfer" style="rounded=1;whiteSpace=wrap;html=1;absoluteArcSize=1;arcSize=14;strokeWidth=2;" parent="1" vertex="1">
          <mxGeometry x="1130" y="-2280" width="100" height="30" as="geometry" />
        </mxCell>
        <mxCell id="8tDg4r73jLn0cOYWj6-P-47" style="edgeStyle=orthogonalEdgeStyle;rounded=0;orthogonalLoop=1;jettySize=auto;html=1;exitX=0.5;exitY=1;exitDx=0;exitDy=0;entryX=0.75;entryY=0;entryDx=0;entryDy=0;" parent="1" source="8tDg4r73jLn0cOYWj6-P-48" target="8tDg4r73jLn0cOYWj6-P-49" edge="1">
          <mxGeometry relative="1" as="geometry" />
        </mxCell>
        <mxCell id="8tDg4r73jLn0cOYWj6-P-48" value="Cash (COD)" style="rounded=1;whiteSpace=wrap;html=1;absoluteArcSize=1;arcSize=14;strokeWidth=2;" parent="1" vertex="1">
          <mxGeometry x="1272.5" y="-2280" width="100" height="30" as="geometry" />
        </mxCell>
        <mxCell id="8tDg4r73jLn0cOYWj6-P-49" value="Order placed" style="rounded=1;whiteSpace=wrap;html=1;absoluteArcSize=1;arcSize=14;strokeWidth=2;" parent="1" vertex="1">
          <mxGeometry x="1200" y="-2205" width="100" height="30" as="geometry" />
        </mxCell>
        <mxCell id="8tDg4r73jLn0cOYWj6-P-50" value="Manage Profile" style="rounded=1;whiteSpace=wrap;html=1;absoluteArcSize=1;arcSize=14;strokeWidth=2;" parent="1" vertex="1">
          <mxGeometry x="1960" y="-2480" width="100" height="30" as="geometry" />
        </mxCell>
        <mxCell id="8tDg4r73jLn0cOYWj6-P-51" value="Manage Product" style="rounded=1;whiteSpace=wrap;html=1;absoluteArcSize=1;arcSize=14;strokeWidth=2;" parent="1" vertex="1">
          <mxGeometry x="1840" y="-2480" width="100" height="30" as="geometry" />
        </mxCell>
        <mxCell id="8tDg4r73jLn0cOYWj6-P-52" value="History Order" style="rounded=1;whiteSpace=wrap;html=1;absoluteArcSize=1;arcSize=14;strokeWidth=2;" parent="1" vertex="1">
          <mxGeometry x="1720" y="-2420" width="100" height="40" as="geometry" />
        </mxCell>
        <mxCell id="H5SiN7s75GPNOgeYYOhO-18" style="edgeStyle=orthogonalEdgeStyle;rounded=0;orthogonalLoop=1;jettySize=auto;html=1;exitX=0.5;exitY=1;exitDx=0;exitDy=0;entryX=0.5;entryY=0;entryDx=0;entryDy=0;" parent="1" source="8tDg4r73jLn0cOYWj6-P-53" target="8tDg4r73jLn0cOYWj6-P-52" edge="1">
          <mxGeometry relative="1" as="geometry" />
        </mxCell>
        <mxCell id="8tDg4r73jLn0cOYWj6-P-53" value="Manage Order" style="rounded=1;whiteSpace=wrap;html=1;absoluteArcSize=1;arcSize=14;strokeWidth=2;" parent="1" vertex="1">
          <mxGeometry x="1720" y="-2480" width="100" height="30" as="geometry" />
        </mxCell>
        <mxCell id="8tDg4r73jLn0cOYWj6-P-54" value="Check review" style="rounded=1;whiteSpace=wrap;html=1;absoluteArcSize=1;arcSize=14;strokeWidth=2;" parent="1" vertex="1">
          <mxGeometry x="1530" y="-2480" width="100" height="30" as="geometry" />
        </mxCell>
        <mxCell id="8tDg4r73jLn0cOYWj6-P-55" value="" style="edgeStyle=orthogonalEdgeStyle;rounded=0;orthogonalLoop=1;jettySize=auto;html=1;" parent="1" source="8tDg4r73jLn0cOYWj6-P-31" target="8tDg4r73jLn0cOYWj6-P-56" edge="1">
          <mxGeometry relative="1" as="geometry">
            <mxPoint x="1197.5" y="-1820" as="sourcePoint" />
            <mxPoint x="1197.5" y="-1755" as="targetPoint" />
          </mxGeometry>
        </mxCell>
        <mxCell id="8tDg4r73jLn0cOYWj6-P-56" value="Stop" style="strokeWidth=2;html=1;shape=mxgraph.flowchart.start_1;whiteSpace=wrap;" parent="1" vertex="1">
          <mxGeometry x="1300" y="-2047" width="100" height="60" as="geometry" />
        </mxCell>
        <mxCell id="H5SiN7s75GPNOgeYYOhO-17" style="edgeStyle=orthogonalEdgeStyle;rounded=0;orthogonalLoop=1;jettySize=auto;html=1;exitX=0.5;exitY=1;exitDx=0;exitDy=0;exitPerimeter=0;entryX=0.474;entryY=0.043;entryDx=0;entryDy=0;entryPerimeter=0;" parent="1" source="8tDg4r73jLn0cOYWj6-P-27" target="8tDg4r73jLn0cOYWj6-P-35" edge="1">
          <mxGeometry relative="1" as="geometry">
            <Array as="points">
              <mxPoint x="1050" y="-2540" />
              <mxPoint x="965" y="-2540" />
            </Array>
          </mxGeometry>
        </mxCell>
        <mxCell id="H5SiN7s75GPNOgeYYOhO-26" style="edgeStyle=orthogonalEdgeStyle;rounded=0;orthogonalLoop=1;jettySize=auto;html=1;exitX=0.5;exitY=0;exitDx=0;exitDy=0;exitPerimeter=0;entryX=0;entryY=0.5;entryDx=0;entryDy=0;" parent="1" source="H5SiN7s75GPNOgeYYOhO-24" target="8tDg4r73jLn0cOYWj6-P-4" edge="1">
          <mxGeometry relative="1" as="geometry" />
        </mxCell>
        <mxCell id="H5SiN7s75GPNOgeYYOhO-24" value="Forgot&amp;nbsp;&lt;div&gt;Password&lt;/div&gt;" style="strokeWidth=2;html=1;shape=mxgraph.flowchart.decision;whiteSpace=wrap;" parent="1" vertex="1">
          <mxGeometry x="790" y="-2690" width="100" height="100" as="geometry" />
        </mxCell>
        <mxCell id="H5SiN7s75GPNOgeYYOhO-25" value="No" style="edgeStyle=orthogonalEdgeStyle;rounded=0;orthogonalLoop=1;jettySize=auto;html=1;exitX=0;exitY=0.5;exitDx=0;exitDy=0;exitPerimeter=0;entryX=1;entryY=0.5;entryDx=0;entryDy=0;entryPerimeter=0;" parent="1" source="8tDg4r73jLn0cOYWj6-P-27" target="H5SiN7s75GPNOgeYYOhO-24" edge="1">
          <mxGeometry y="-20" relative="1" as="geometry">
            <mxPoint as="offset" />
          </mxGeometry>
        </mxCell>
        <mxCell id="H5SiN7s75GPNOgeYYOhO-31" style="edgeStyle=orthogonalEdgeStyle;rounded=0;orthogonalLoop=1;jettySize=auto;html=1;exitX=0.5;exitY=0;exitDx=0;exitDy=0;exitPerimeter=0;entryX=1;entryY=0.5;entryDx=0;entryDy=0;" parent="1" source="H5SiN7s75GPNOgeYYOhO-29" target="8tDg4r73jLn0cOYWj6-P-5" edge="1">
          <mxGeometry relative="1" as="geometry" />
        </mxCell>
        <mxCell id="H5SiN7s75GPNOgeYYOhO-29" value="Forgot&amp;nbsp;&lt;div&gt;Password&lt;/div&gt;" style="strokeWidth=2;html=1;shape=mxgraph.flowchart.decision;whiteSpace=wrap;" parent="1" vertex="1">
          <mxGeometry x="1840" y="-2690" width="100" height="100" as="geometry" />
        </mxCell>
        <mxCell id="H5SiN7s75GPNOgeYYOhO-30" value="No" style="edgeStyle=orthogonalEdgeStyle;rounded=0;orthogonalLoop=1;jettySize=auto;html=1;entryX=0;entryY=0.5;entryDx=0;entryDy=0;entryPerimeter=0;" parent="1" source="8tDg4r73jLn0cOYWj6-P-15" target="H5SiN7s75GPNOgeYYOhO-29" edge="1">
          <mxGeometry y="20" relative="1" as="geometry">
            <mxPoint as="offset" />
          </mxGeometry>
        </mxCell>
        <mxCell id="HlZVBb7B23S8qVt_JWEx-1" value="&lt;font&gt;Flow&amp;nbsp; Aplikasi Beli Galon&lt;/font&gt;" style="text;html=1;align=center;verticalAlign=middle;whiteSpace=wrap;rounded=0;fontSize=32;" vertex="1" parent="1">
          <mxGeometry x="1140" y="-3050" width="460" height="30" as="geometry" />
        </mxCell>
      </root>
    </mxGraphModel>
  </diagram>
  <diagram id="cdyGDWooNTioHARPBS7q" name="Page-3">
    <mxGraphModel dx="-1131" dy="3623" grid="1" gridSize="10" guides="1" tooltips="1" connect="1" arrows="1" fold="1" page="1" pageScale="1" pageWidth="850" pageHeight="1100" math="0" shadow="0">
      <root>
        <mxCell id="0" />
        <mxCell id="1" parent="0" />
        <mxCell id="vM8uv39_v85_bqD-jxS1-1" value="" style="whiteSpace=wrap;html=1;aspect=fixed;" parent="1" vertex="1">
          <mxGeometry x="4055" y="-1029.5" width="1090" height="1090" as="geometry" />
        </mxCell>
        <mxCell id="vM8uv39_v85_bqD-jxS1-2" value="" style="edgeStyle=orthogonalEdgeStyle;rounded=0;orthogonalLoop=1;jettySize=auto;html=1;" parent="1" source="vM8uv39_v85_bqD-jxS1-3" target="vM8uv39_v85_bqD-jxS1-7" edge="1">
          <mxGeometry relative="1" as="geometry" />
        </mxCell>
        <mxCell id="vM8uv39_v85_bqD-jxS1-3" value="Pending" style="rounded=0;whiteSpace=wrap;html=1;" parent="1" vertex="1">
          <mxGeometry x="4540" y="-870" width="120" height="60" as="geometry" />
        </mxCell>
        <mxCell id="vM8uv39_v85_bqD-jxS1-4" value="user membuat pesanan" style="text;html=1;align=center;verticalAlign=middle;whiteSpace=wrap;rounded=0;" parent="1" vertex="1">
          <mxGeometry x="4670" y="-855" width="210" height="30" as="geometry" />
        </mxCell>
        <mxCell id="vM8uv39_v85_bqD-jxS1-5" value="" style="edgeStyle=orthogonalEdgeStyle;rounded=0;orthogonalLoop=1;jettySize=auto;html=1;" parent="1" source="vM8uv39_v85_bqD-jxS1-7" target="vM8uv39_v85_bqD-jxS1-13" edge="1">
          <mxGeometry relative="1" as="geometry" />
        </mxCell>
        <mxCell id="vM8uv39_v85_bqD-jxS1-6" value="pesanan sesuai dan dibayar ( transfer )" style="edgeLabel;html=1;align=center;verticalAlign=middle;resizable=0;points=[];" parent="vM8uv39_v85_bqD-jxS1-5" connectable="0" vertex="1">
          <mxGeometry x="-0.3038" y="3" relative="1" as="geometry">
            <mxPoint as="offset" />
          </mxGeometry>
        </mxCell>
        <mxCell id="vM8uv39_v85_bqD-jxS1-7" value="Konfirmasi" style="rounded=0;whiteSpace=wrap;html=1;" parent="1" vertex="1">
          <mxGeometry x="4540" y="-730" width="120" height="60" as="geometry" />
        </mxCell>
        <mxCell id="vM8uv39_v85_bqD-jxS1-8" value="Penjual konfirmasi pesanan" style="text;html=1;align=center;verticalAlign=middle;whiteSpace=wrap;rounded=0;" parent="1" vertex="1">
          <mxGeometry x="4670" y="-718" width="210" height="30" as="geometry" />
        </mxCell>
        <mxCell id="vM8uv39_v85_bqD-jxS1-9" value="" style="edgeStyle=orthogonalEdgeStyle;rounded=0;orthogonalLoop=1;jettySize=auto;html=1;" parent="1" source="vM8uv39_v85_bqD-jxS1-13" target="vM8uv39_v85_bqD-jxS1-19" edge="1">
          <mxGeometry relative="1" as="geometry" />
        </mxCell>
        <mxCell id="vM8uv39_v85_bqD-jxS1-10" value="cash" style="edgeLabel;html=1;align=center;verticalAlign=middle;resizable=0;points=[];" parent="vM8uv39_v85_bqD-jxS1-9" connectable="0" vertex="1">
          <mxGeometry x="0.1071" relative="1" as="geometry">
            <mxPoint as="offset" />
          </mxGeometry>
        </mxCell>
        <mxCell id="vM8uv39_v85_bqD-jxS1-11" value="" style="edgeStyle=orthogonalEdgeStyle;rounded=0;orthogonalLoop=1;jettySize=auto;html=1;" parent="1" source="vM8uv39_v85_bqD-jxS1-13" target="vM8uv39_v85_bqD-jxS1-20" edge="1">
          <mxGeometry relative="1" as="geometry" />
        </mxCell>
        <mxCell id="vM8uv39_v85_bqD-jxS1-12" value="Pesanan dibayar ( transfer )" style="edgeLabel;html=1;align=center;verticalAlign=middle;resizable=0;points=[];" parent="vM8uv39_v85_bqD-jxS1-11" connectable="0" vertex="1">
          <mxGeometry x="0.0027" y="1" relative="1" as="geometry">
            <mxPoint y="1" as="offset" />
          </mxGeometry>
        </mxCell>
        <mxCell id="vM8uv39_v85_bqD-jxS1-13" value="Dikirim" style="whiteSpace=wrap;html=1;rounded=0;" parent="1" vertex="1">
          <mxGeometry x="4540" y="-530" width="120" height="72" as="geometry" />
        </mxCell>
        <mxCell id="vM8uv39_v85_bqD-jxS1-14" value="Penjual mengirim pesanan" style="text;html=1;align=center;verticalAlign=middle;whiteSpace=wrap;rounded=0;" parent="1" vertex="1">
          <mxGeometry x="4670" y="-574" width="210" height="31" as="geometry" />
        </mxCell>
        <mxCell id="vM8uv39_v85_bqD-jxS1-15" style="edgeStyle=orthogonalEdgeStyle;rounded=0;orthogonalLoop=1;jettySize=auto;html=1;entryX=0;entryY=0.5;entryDx=0;entryDy=0;" parent="1" source="vM8uv39_v85_bqD-jxS1-19" target="vM8uv39_v85_bqD-jxS1-20" edge="1">
          <mxGeometry relative="1" as="geometry" />
        </mxCell>
        <mxCell id="vM8uv39_v85_bqD-jxS1-16" value="di bayar" style="edgeLabel;html=1;align=center;verticalAlign=middle;resizable=0;points=[];" parent="vM8uv39_v85_bqD-jxS1-15" connectable="0" vertex="1">
          <mxGeometry x="0.069" y="-2" relative="1" as="geometry">
            <mxPoint as="offset" />
          </mxGeometry>
        </mxCell>
        <mxCell id="vM8uv39_v85_bqD-jxS1-17" style="edgeStyle=orthogonalEdgeStyle;rounded=0;orthogonalLoop=1;jettySize=auto;html=1;entryX=0;entryY=0.5;entryDx=0;entryDy=0;" parent="1" source="vM8uv39_v85_bqD-jxS1-19" target="vM8uv39_v85_bqD-jxS1-24" edge="1">
          <mxGeometry relative="1" as="geometry">
            <mxPoint x="4440" y="-150" as="targetPoint" />
            <Array as="points">
              <mxPoint x="4440" y="-150" />
            </Array>
          </mxGeometry>
        </mxCell>
        <mxCell id="vM8uv39_v85_bqD-jxS1-18" value="tidak dibayar" style="edgeLabel;html=1;align=center;verticalAlign=middle;resizable=0;points=[];" parent="vM8uv39_v85_bqD-jxS1-17" connectable="0" vertex="1">
          <mxGeometry x="-0.3138" y="1" relative="1" as="geometry">
            <mxPoint y="-1" as="offset" />
          </mxGeometry>
        </mxCell>
        <mxCell id="vM8uv39_v85_bqD-jxS1-19" value="dibayar ( cash )" style="whiteSpace=wrap;html=1;rounded=0;" parent="1" vertex="1">
          <mxGeometry x="4380" y="-450" width="120" height="70" as="geometry" />
        </mxCell>
        <mxCell id="vM8uv39_v85_bqD-jxS1-20" value="Pesanan Sampai" style="whiteSpace=wrap;html=1;rounded=0;" parent="1" vertex="1">
          <mxGeometry x="4540" y="-320" width="120" height="60" as="geometry" />
        </mxCell>
        <mxCell id="vM8uv39_v85_bqD-jxS1-21" value="Penjual konfirmasi pesanan dibayar atau tidak" style="text;html=1;align=center;verticalAlign=middle;whiteSpace=wrap;rounded=0;" parent="1" vertex="1">
          <mxGeometry x="4220" y="-500" width="210" height="31" as="geometry" />
        </mxCell>
        <mxCell id="vM8uv39_v85_bqD-jxS1-22" value="User konfirmasi pesanan sampai, order selesai" style="text;html=1;align=center;verticalAlign=middle;whiteSpace=wrap;rounded=0;" parent="1" vertex="1">
          <mxGeometry x="4680" y="-305.5" width="210" height="31" as="geometry" />
        </mxCell>
        <mxCell id="vM8uv39_v85_bqD-jxS1-23" value="" style="edgeStyle=orthogonalEdgeStyle;rounded=0;orthogonalLoop=1;jettySize=auto;html=1;" parent="1" source="vM8uv39_v85_bqD-jxS1-24" target="vM8uv39_v85_bqD-jxS1-20" edge="1">
          <mxGeometry relative="1" as="geometry" />
        </mxCell>
        <mxCell id="vM8uv39_v85_bqD-jxS1-24" value="Dibatalkan" style="whiteSpace=wrap;html=1;rounded=0;" parent="1" vertex="1">
          <mxGeometry x="4540" y="-180" width="120" height="60" as="geometry" />
        </mxCell>
        <mxCell id="vM8uv39_v85_bqD-jxS1-25" value="User/ penjual bisa membatalkan jika pesanan tidak sesuai&amp;nbsp;" style="text;html=1;align=center;verticalAlign=middle;whiteSpace=wrap;rounded=0;" parent="1" vertex="1">
          <mxGeometry x="4680" y="-165.5" width="210" height="31" as="geometry" />
        </mxCell>
        <mxCell id="vM8uv39_v85_bqD-jxS1-26" value="Note:&amp;nbsp;&lt;div&gt;Status order untuk USER:&lt;/div&gt;&lt;div&gt;-&amp;nbsp; delivered: button untuk merubah status muncul jika status order sudah shipped (dikirim)&lt;/div&gt;&lt;div&gt;- cancelled: button untuk cancelled akan muncul selama status order nya belum shipped (dikirim)&lt;/div&gt;" style="text;html=1;align=left;verticalAlign=middle;whiteSpace=wrap;rounded=0;" parent="1" vertex="1">
          <mxGeometry x="4410" y="-88" width="420" height="110" as="geometry" />
        </mxCell>
        <mxCell id="vM8uv39_v85_bqD-jxS1-27" value="&lt;h1 style=&quot;margin-top: 0px;&quot;&gt;&lt;span style=&quot;background-color: initial;&quot;&gt;Status Order&lt;/span&gt;&lt;/h1&gt;&lt;h1 style=&quot;margin-top: 0px;&quot;&gt;&lt;span style=&quot;background-color: initial; font-size: 12px; font-weight: normal;&quot;&gt;1. Pending&lt;/span&gt;&lt;br&gt;&lt;span style=&quot;background-color: initial; font-size: 12px; font-weight: normal;&quot;&gt;2. Confiirmed : Penjual konfirmasi pesanan&lt;/span&gt;&lt;br&gt;&lt;span style=&quot;background-color: initial; font-size: 12px; font-weight: normal;&quot;&gt;3. Shipped : Penjual mengirim pesanan ke user&lt;/span&gt;&lt;br&gt;&lt;span style=&quot;background-color: initial; font-size: 12px; font-weight: normal;&quot;&gt;4. Delivered : User menerima pesanan&lt;/span&gt;&lt;br&gt;&lt;span style=&quot;background-color: initial; font-size: 12px; font-weight: normal;&quot;&gt;5. Cancelled : Penjual atau user membatalkan pesanan&lt;/span&gt;&lt;/h1&gt;" style="text;html=1;whiteSpace=wrap;overflow=hidden;rounded=0;" parent="1" vertex="1">
          <mxGeometry x="4180" y="-878" width="340" height="220" as="geometry" />
        </mxCell>
        <mxCell id="vM8uv39_v85_bqD-jxS1-28" value="Pesanan dibuat" style="whiteSpace=wrap;html=1;rounded=0;" parent="1" vertex="1">
          <mxGeometry x="4540" y="-1010" width="120" height="60" as="geometry" />
        </mxCell>
        <mxCell id="vM8uv39_v85_bqD-jxS1-29" value="" style="edgeStyle=orthogonalEdgeStyle;rounded=0;orthogonalLoop=1;jettySize=auto;html=1;" parent="1" edge="1">
          <mxGeometry relative="1" as="geometry">
            <mxPoint x="4599.78" y="-950" as="sourcePoint" />
            <mxPoint x="4599.78" y="-870" as="targetPoint" />
          </mxGeometry>
        </mxCell>
        <mxCell id="tl47D3gMt8ySaA_zj4Og-1" value="&lt;font&gt;Flow&amp;nbsp; Order&lt;/font&gt;" style="text;html=1;align=center;verticalAlign=middle;whiteSpace=wrap;rounded=0;fontSize=32;" vertex="1" parent="1">
          <mxGeometry x="4350" y="-1130" width="460" height="30" as="geometry" />
        </mxCell>
      </root>
    </mxGraphModel>
  </diagram>
</mxfile>
